/* XPM */
static char *c029673318fc4426ac0b062caf7a8b26Yn699o6QC7ylr2Co[] = {
/* columns rows colors chars-per-pixel */
"64 64 125 2 ",
"   c #000000",
".  c #090503",
"X  c #0D0805",
"o  c #0C0A09",
"O  c #120607",
"+  c #120B03",
"@  c #120D0D",
"#  c #1E0B0C",
"$  c #1E1305",
"%  c #1D120C",
"&  c #1B1412",
"*  c #1E1A16",
"=  c #200B0C",
"-  c #2A0F0F",
";  c #251706",
":  c #261806",
">  c #22150E",
",  c #2F1111",
"<  c #261912",
"1  c #2B1B11",
"2  c #251B18",
"3  c #311112",
"4  c #3E1617",
"5  c #3F2809",
"6  c #2B251E",
"7  c #342015",
"8  c #392417",
"9  c #3E2718",
"0  c #2D2720",
"q  c #352923",
"w  c #3E2D29",
"e  c #3E352B",
"r  c #401617",
"t  c #4C1B1B",
"y  c #412809",
"u  c #4F310B",
"i  c #51320B",
"p  c #59370C",
"a  c #5C390D",
"s  c #432A1A",
"d  c #653E0E",
"f  c #591F20",
"g  c #402E2A",
"h  c #5C2121",
"j  c #583722",
"k  c #5F3B25",
"l  c #4F3933",
"z  c #523C36",
"x  c #662424",
"c  c #692526",
"v  c #6F2728",
"b  c #712828",
"n  c #623E26",
"m  c #6A420E",
"M  c #71460F",
"N  c #744710",
"B  c #7F4E11",
"V  c #5B423B",
"C  c #674028",
"Z  c #6F452B",
"A  c #70462B",
"S  c #774A2E",
"D  c #5C4F40",
"F  c #6A4D45",
"G  c #685947",
"H  c #695A48",
"J  c #73534A",
"K  c #7E5B51",
"L  c #842F2F",
"P  c #862F30",
"I  c #873030",
"U  c #8A3132",
"Y  c #963535",
"T  c #9F3839",
"R  c #A2393A",
"E  c #A93C3C",
"W  c #B13F3F",
"Q  c #845112",
"!  c #965C14",
"~  c #9A5F14",
"^  c #9A6015",
"/  c #805031",
"(  c #8A5635",
")  c #8E5836",
"_  c #905A37",
"`  c #985F3A",
"'  c #9D623C",
"]  c #A2653E",
"[  c #C07619",
"{  c #C4791A",
"}  c #B64041",
"|  c #B94142",
" . c #866156",
".. c #8B655A",
"X. c #92695E",
"o. c #84715B",
"O. c #976D62",
"+. c #986E62",
"@. c #9B7064",
"#. c #907B63",
"$. c #C34545",
"%. c #DE4E4E",
"&. c #E14F4F",
"*. c #E14F50",
"=. c #E45151",
"-. c #EB5353",
";. c #F35656",
":. c #FF5A5A",
">. c #D8851C",
",. c #E18B1D",
"<. c #F69820",
"1. c #FF9E21",
"2. c #FFA122",
"3. c #968268",
"4. c #AE9577",
"5. c #B69C7D",
"6. c #D2B490",
"7. c #E1C099",
"8. c #E8C69E",
"9. c #ECCAA2",
"0. c #F1CEA5",
"q. c #F7D3A9",
"w. c #FFDBAE",
"e. c #FFDDB0",
"r. c #FFE1B4",
/* pixels */
"] ] ] ] ] ] ) j 1 @ .   X % 9 S ' ] ] ] ] ] ] ] ] ] ] ] ] ] ] ] ] ] ] ] ] ] ] ] ] ] ] ] ] ] ] ] ] ] ] ] ] ] ] ] ] ] ] ] ] ] ] ] ",
"] ] ] ] ' j %                 X 8 / ] ] ] ] ] ] ] ] ] ] ] ] ] ] ] ] ] ] ] ] ] ] ] ] ] ] ] ] ] ] ] ] ] ] ] ] ] ] ] ] ] ] ] ] ] ] ",
"] ] ] ( 7     . - f L Y b r O     @ C ] ] ] ] ] ] ] ] ] ] ] ] ] ] ] ] ] ] ] ] ] ] ] ] ] ] ] ] ] ] ] ] ] ] ] ] ] ] ] ] ] ] ] ] ] ",
"] ] ( <     3 R =.:.:.:.:.;.$.c X   X j ] ] ] ] ] ] ] ] ] ] ] ] ] ] ] ] ] ] ] ] ] ] ] ] ] ] ] ] ] ] ] ] ] ] ] ] ] ] ] ] ] ] ] ] ",
"] ` 7   . x =.:.:.:.:.:.:.:.:.:.E =   X A ] ] ] ] ] ] ] ] ] ] ] ] ] ] ] ] ] ] ] ] ] ] ] ] ] ] ] ] ] ] ] ] ] ] ] ] ] ] ] ] ] ] ] ",
"] j     x -.:.:.:.:.:.:.:.:.:.:.:.} #   > _ ] ] ] ] ] ] ] ] ] ] ] ] ] ] ] ] ] ] ] ] ] ] ] ] ] ] ] ] ] ] ] ] ] ] ] ] ] ] ] ] ] ] ",
") %   3 =.:.:.:.:.:.:.:.:.:.:.:.:.:.U     j ] ] ] ] ] ] ] ] ] ] ] ] ] ] ] ] ] ] ] ] ] ] ] ] ] ] ] ] ] ] ] ] ] ] ] ] ] ] ] ] ] ] ",
"j   . R :.:.:.:.:.:.:.:.:.:.:.:.:.:.-.4   1 ` ] ] ] ] ] ] ] ] ] ] ] ] ] ] ] ] ] ] ] ] ] ] ] ] ] ] ] ] ] ] ] ] ] ] ] ] ] ] ] ] ] ",
"1   , =.:.:.:.:.:.:.:.:.:.:.:.:.:.:.:.P   X / ] ] ] ] ] ] ] ] ] ] ] ] ] ] ] ] ] ] ] ] ] ] ] ] ] ] ] ] ] ] ] ] ] ] ] ] ] ] ] ] ] ",
"@   t %.=.&.&.&.&.%.&.&.&.&.&.=.&.&.=.E .   C ] ] ] ] ] ] ] ] ] ] ] ] ] ] ] ] ] ] ] ] ] ] ] ] ] ] ] ] ] ] ] ] ] ] ] ] ] ] ] ] ] ",
".   X # # # # # # # # # # # # # # # # #     j ] ] ] ] ] ] ] ] ] ] ] ] ] ] ] ] ] ] ] ] ] ] ] ] ] ] ] ] ] ] ] ] ] ] ] ] ] ] ] ] ] ",
"                                            n ] ] ] ] ] ] ] ] ] ] ] ] ] ] ] ] ] ] ] ] ] ] ] ] ] ] ] ] ] ] ] ] ] ] ] ] ] ] ] ] ] ",
"    a N     M ^ ! Q +   p ^ ! ! ;   : B +   k ] ] ] ] ] ] ] ] ] ] ] ] ] ] ] ] ] ] ] ] ] ] ] ] ] ] ] ] ] ] ] ] ] ] ] ] ] ] ] ] ] ",
"    ^ { . . { 2.2.,.$   ! 2.2.<.5   y >.$   k ] ] ] ] ] ] ] ] ] ] ] ] ] ] ] ] ] ] ] ] ] ] ] ] ] ] ] ] ] ] ] ] ] ] ] ] ] ] ] ] ] ",
"    ^ { . . [ 2.2.,.$   ! 2.1.<.5   y >.;   k ] ] ] ] ] ] ] ] ] ] ] ] ] ] ] ] ] ] ] ] ] ] ] ] ] ] ] ] ] ] ] ] ] ] ] ] ] ] ] ] ] ",
"    ~ { . . [ 1.1.,.$   ! 1.1.<.5   y >.$   k ] ] ] ] ] ] ] ] ] ] ] ] ] ] ] ] ] ] ] ] ] ] ] ] ] ] ] ] ] ] ] ] ] ] ] ] ] ] ] ] ] ",
"    ~ { X . [ 1.1.,.$   ! 2.1.<.5   y >.$   n ] ] ] ] ] ] ] ] ] ] ] ] ] ] ] ] ] ] ] ] ] ] ] ] ] ] ] ] ] ] ] ] ] ] ] ] ] ] ] ] ] ",
"    ~ {   X [ 1.1.,.$   ! 2.1.<.5   y >.$   j ] ] ] ] ] ] ] ] ] ] ] ] ] ] ] ] ] ] ] ] ] ] ] ] ] ] ] ] ] ] ] ] ] ] ] ] ] ] ] ] ] ",
"    ~ { . . [ 1.1.,.$   ! 2.1.<.5   y >.$   n ] ] ] ] ] ] ] ] ] ] ] ] ] ] ] ] ] ] ] ] ] ] ] ] ] ] ] ] ] ] ] ] ] ] ] ] ] ] ] ] ] ",
"    ~ { . . [ 1.1.,.$   ! 1.1.<.5   y >.$   n ] ] ] ] ] ] ] ] ] ] ] ] ] ] ] ] ] ] ] ] ] ] ] ] ] ] ] ] ] ] ] ] ] ] ] ] ] ] ] ] ] ",
"    ^ { . . [ 2.1.,.$   ! 2.1.<.5   y >.;   j ] ] ] ] ] ] ] ] ] ] ] ] ] ] ] ] ] ] ] ] ] ] ] ] ] ] ] ] ] ] ] ] ] ] ] ] ] ] ] ] ] ",
"    5 i     u m m a X   5 m m d $   $ p X   1 s s s s s s s s s s s s s s s s s s s s s s s s s s s s s s s s s s s s s s s s Z ",
"                                                                                                                              X ",
"    + # # # # # # # # # # # # # # # = #     o @ @ @ @ @ @ @ @ @ @ @ @ @ @ @ @ @ @ @ @ @ @ @ @ @ @ @ @ @ @ @ @ @ @ @ @ @ @ .     ",
"    P =.*.*.*.=.*.*.*.*.&.&.&.&.*.*.=.$.#   l  . . . . . . . . . . . . . . . . . . . . . . . . . . . . . . . . . . . . . .q     ",
"    Y :.:.:.:.:.:.:.:.:.:.:.:.:.:.:.:.=.#   V @.@.+.@.+.+.@.@.+.@.+.+.@.+.@.@.O.+.+.@.+.+.+.+.+.@.+.+.+.@.+.+.@.+.+.@.+.@.g     ",
"    4 v c c c c c c c I =.:.:.:.:.:.:.=.#   V @.+.+.O.O.X.@.X.+.O.+.+.+.@.@.O.O.+.+.+.O.+.+.+.+.O.+.+.+.+.+.F z ....z w w &     ",
"                        T :.:.:.:.:.:.*.#   V @.O.O.+.+.+.@.@.@.+.O.O.+.X.X.@.O.O.+.+.+.+.+.O.+.O.+.+.+.+...&   F F             ",
"    o = # # # # # # # 3 $.:.:.:.:.:.:.&.#   V @.+.+.O.+.+.O.X.@.+.O.+.+.@.@.@.X.+.+.+.+.O.@.O.@.+.O.+.+.+.O.w & J K 2 @ @ .     ",
"    I =.*.*.*.=.%.=.*.-.:.:.:.:.:.:.:.&.#   V @.O.+.O.O.+.+.+.+.+.+.+.+.@.X.@.@.O.+.O.+.O.O.O.O.+.+.+.O.+.O.O...O.O... . .q     ",
"    Y :.:.:.:.:.:.:.:.:.:.:.:.:.:.:.:.&.#   V @.@.@.O.@.@.+.+.+.+.+.+.+.@.+.+.+.+.+.+.@.@.+.@.O.+.+.+.@.@.O.O.@.@.O.@.@.@.w     ",
"    4 v c c I -.:.:.:.:.:.:.:.:.:.:.:.%.#   2 w w w w w w w w w w w w w w w w w w w w w w w w w w w w w w w w w w w w w w &     ",
"              T :.:.:.:.:.:.:.:.:.:.:.&.#                                                                                       ",
"    @ # # # 3 $.:.:.;.:.:.:.:.:.:.:.:.&.#   @ # # # # # # # # # # # # # # # # # # # # # # # # # # # # # # # # # # # # # # X     ",
"    I =.&.&.-.:.:.:.:.:.:.:.:.:.:.:.:.&.#   I =.&.&.=.&.&.&.&.&.&.&.&.&.&.=.&.&.&.&.&.&.&.&.&.=.&.=.&.&.&.&.&.&.&.&.&.=.=.h     ",
"    Y :.:.:.:.:.:.:.:.:.:.:.:.:.:.:.:.&.#   Y :.:.:.:.:.:.:.:.:.:.:.:.:.:.:.:.:.:.:.:.:.:.:.:.:.:.:.:.:.:.:.:.:.:.:.:.:.:.c     ",
"    4 c c c c v $.:.W P =.:.:.:.:.:.:.&.#   Y :.:.:.:.:.:.:.:.:.:.:.:.:.:.:.:.:.:.:.:.:.:.:.:.:.:.:.:.:.:.:.:.:.:.:.:.:.:.c     ",
"                t &.-   R :.:.:.:.:.:.&.#   Y :.:.:.:.:.:.:.:.:.:.:.:.:.:.:.:.:.:.:.:.:.:.:.:.:.:.:.:.:.:.:.:.:.:.:.:.:.:.c     ",
"    O = = = = = L ;.x 3 | :.:.:.:.:.:.&.#   Y :.:.:.:.:.:.:.:.:.:.:.:.:.:.:.:.:.:.:.:.:.:.:.:.:.:.:.:.:.:.:.:.:.:.:.:.:.:.c     ",
"    I =.&.&.&.=.;.:.;.-.:.:.:.:.:.:.:.&.#   Y :.:.:.:.:.:.:.:.:.:.:.:.:.:.:.:.:.:.:.:.:.:.:.:.:.:.:.:.:.:.:.:.:.:.:.:.:.:.c     ",
"    Y :.:.:.:.:.:.:.:.:.:.:.:.:.:.:.:.&.#   Y :.:.:.:.:.:.:.:.:.:.:.:.:.:.:.:.:.:.:.:.:.:.:.:.:.:.:.:.:.:.:.:.:.:.:.:.:.:.c     ",
"    4 c v c I -.:.:.:.:.:.:.:.:.:.:.:.&.#   Y :.:.} c c c c c c x x x x c c c c c c x v c c c c c c c c c c c c x c | :.:.c     ",
"              T :.:.:.:.:.:.:.:.:.:.:.&.#   Y :.-.,                                                                 3 -.:.c     ",
"    O # = = 3 | :.:.:.:.:.:.:.:.:.:.:.&.#   Y :.&.#   @ * * * * * * * 2 * * * * * * * * * * * * * * * * * * * * o   = &.:.c     ",
"    I =.=.*.-.:.:.:.:.:.:.:.:.:.:.:.:.*.#   Y :.&.#   o.8.7.7.7.7.7.7.7.7.7.7.7.7.7.7.7.7.7.7.7.7.7.7.7.7.7.7.7.D   # *.:.c     ",
"    Y :.:.:.:.:.:.:.:.:.:.:.:.:.:.:.:.*.#   Y :.&.#   3.r.e.e.e.e.w.e.w.e.e.e.w.w.r.r.w.w.w.r.w.e.e.e.e.w.e.e.r.H   # *.:.c     ",
"    4 v c v c c c c c L =.:.:.:.:.:.:.=.%   Y :.&.#   e G G G G H H H H H H H H H H H H H H H H H H H H H H H H 6   # *.:.c     ",
"                        T :.:.:.:.:.:.=.#   Y :.&.#                                                                 # =.:.c     ",
"    @ # # # # # # # # , $.:.:.:.:.:.:.&.#   Y :.=.#   @ * * * * * * * * * * * * * * * * * * * * * * * * * * * * o   # &.:.c     ",
"    P *.*.*.*.*.*.*.%.-.:.:.:.:.:.:.:.&.#   Y :.=.#   o.8.7.7.7.7.7.7.7.7.7.7.7.7.7.7.7.7.7.7.7.7.7.7.7.7.7.7.7.D   # &.:.c     ",
"    Y :.:.:.:.:.:.:.:.:.:.:.:.:.:.:.:.&.#   Y :.&.#   3.r.r.e.e.w.e.e.e.e.e.w.e.w.r.w.e.w.r.r.w.w.w.w.w.w.w.w.e.H   # &.:.c     ",
"    4 v c c I -.:.:.:.:.:.:.:.:.:.:.:.&.#   Y :.&.#   e H H H H H H H H H H H H G G #.0.8.o.5.w.w.w.w.w.w.w.w.w.H   # &.:.c     ",
"              T :.:.:.:.:.:.:.:.:.:.:.&.&   Y :.&.#                                 . 4.o.  q 9.w.w.w.w.w.w.w.w.H   # *.:.c     ",
"    @ = # # , $.:.:.:.:.:.:.:.:.:.:.:.&.#   Y :.&.#   @ * * * * * * * * * * * * * * e 6.5.0 H q.w.w.w.w.w.w.w.w.H   # *.:.c     ",
"    P =.*.*.-.:.:.:.:.:.:.:.:.:.:.:.:.*.#   Y :.&.#   o.8.7.7.7.7.7.7.7.7.7.7.7.7.7.9.w.w.9.q.w.w.w.w.w.w.w.w.w.H   # *.:.c     ",
"    Y :.:.:.:.:.:.:.:.:.:.:.:.:.:.:.:.=.#   Y :.&.#   3.r.w.e.e.e.e.e.w.e.e.w.e.e.e.e.w.w.e.e.w.w.w.w.w.w.w.w.w.H   # =.:.c     ",
"    4 c c c c c x x c L -.:.:.:.:.:.:.*.#   Y :.&.#   e H H H H H H H G H H H H H H H H H H H H H H H H H H H H 6   # &.:.c     ",
"                        R :.:.:.:.:.:.*.#   Y :.&.#                                                                 # &.:.c     ",
"    O # # # # # = # # , $.:.:.:.:.:.:.*.#   Y :.&.#   @ 2 * * * * * * * * * * * * * * * * * * * * * * * * * * * o   # &.:.c     ",
"    P =.*.*.*.=.&.&.&.-.:.:.:.:.:.:.:.*.#   Y :.&.#   o.7.7.7.7.7.7.7.7.7.7.7.7.7.7.7.7.7.7.7.7.7.7.7.7.7.7.7.7.D   # &.:.c     ",
"    Y :.:.:.:.:.:.:.:.:.:.:.:.:.:.:.:.=.#   Y :.=.#   3.r.e.e.e.e.e.e.e.w.e.e.e.e.e.e.e.e.e.e.e.e.e.e.e.e.e.e.e.H   # =.:.c     ",
"    4 v c c c c c c c c x x c c c c c h X   4 v h X   e H H H H H H H H H H H H H H H H H H H H H H H H H H H H 0   . h v ,     ",
"                                                                                                                                ",
"1                                                                                                                           . 1 "
};
