/* XPM */
static char *a85ee91d001e4e15df8617840cf4aecfy0GzuQlUC2KQegDA[] = {
/* columns rows colors chars-per-pixel */
"64 64 100 2 ",
"   c #BB6C2D",
".  c #AD6837",
"X  c #A2653E",
"o  c #AA6739",
"O  c #AB6838",
"+  c #B46A32",
"@  c #DE7616",
"#  c #D3731D",
"$  c #DA7519",
"%  c #EC7A0D",
"&  c #F67D06",
"*  c #FF7F00",
"=  c #F17B09",
"-  c #E17714",
";  c #E67811",
":  c #C56F27",
">  c #C26E29",
",  c #CA7023",
"<  c #CA7E23",
"1  c #E98B0E",
"2  c #FF8200",
"3  c #FF8B00",
"4  c #FF9400",
"5  c #FF9C00",
"6  c #FFA300",
"7  c #FEAC01",
"8  c #FEB301",
"9  c #FFBC00",
"0  c #DC9C29",
"q  c #FFC300",
"w  c #FFCC00",
"e  c #FFD400",
"r  c #FFDA00",
"t  c #FFDC0B",
"y  c #FFDD16",
"u  c #FFDE1A",
"i  c #FFDF22",
"p  c #FED32C",
"a  c #FED431",
"s  c #FFE02A",
"d  c #FFE131",
"f  c #FFE230",
"g  c #FFE133",
"h  c #FFE236",
"j  c #FFE238",
"k  c #FFE23A",
"l  c #FFE33D",
"z  c #FFE33E",
"x  c #FFE33F",
"c  c #FFE54E",
"v  c #EFC166",
"b  c #EFC36A",
"n  c #FFEA6B",
"m  c #FFEA6D",
"M  c #FFEA6E",
"N  c #FFEB74",
"B  c #FFEB75",
"V  c #FFEC7F",
"C  c #FFED82",
"Z  c #FFED85",
"A  c #FFF19F",
"S  c #FFF1A0",
"D  c #FFF2A7",
"F  c #FFF1AD",
"G  c #FFF1AE",
"H  c #FFF3AF",
"J  c #F3E3BE",
"K  c #FFF4B2",
"L  c #FFF4B4",
"P  c #FFF5B7",
"I  c #FFF5BD",
"U  c #FFF6BF",
"Y  c #FFF6C1",
"T  c #FFF6C2",
"R  c #FFF7C5",
"E  c #FFF9CE",
"W  c #FFF8D1",
"Q  c #FFF9D2",
"!  c #FFF9D5",
"~  c #FFFADB",
"^  c #FFFADF",
"/  c #FBF4E7",
"(  c #FFFBE0",
")  c #FFFBE1",
"_  c #FFFBE2",
"`  c #FFFBE5",
"'  c #FBF4E9",
"]  c #FFFCED",
"[  c #FFFCEE",
"{  c #FFFDF3",
"}  c #FFFDF5",
"|  c #FFFEF5",
" . c #FFFEF6",
".. c #FFFEF8",
"X. c #FFFEF9",
"o. c #FFFEFA",
"O. c #FFFFFD",
"+. c #FFFFFE",
"@. c white",
"#. c #FFFEFC",
/* pixels */
"X X X X X X X X X X X X X X X X X X X X X X X X X X X X X # * > X X X X X X X X X X X X X X X X X X X X X X X X X X X X X X X X ",
"X X X X X X X X X X X X X X X X X X X X X X X X X X X X   & * , X X X X X X X X X X X X X X X X X X X X X X X X X X X X X X X X ",
"X X X X X X X X X X X X X X X X X X X X X X X X X X X + % * * , X X X X X X X X X X X X X X X X X X X X X X X X X X X X X X X X ",
"X X X X X X X X X X X X X X X X X X X X X X X X X X o - * * * , X X X X X X X X X X X X X X X X X X X X X X X X X X X X X X X X ",
"X X X X X X X X X X X X X X X X X X X X X X X X X X # 2 * * * : X X X X X X X X X X X X X X X X X X X X X X X X X X X X X X X X ",
"X X X X X X X X X X X X X X X X X X X X X X X X X , * * * * * , X X X X X X X X X X X X X X X X X X X X X X X X X X X X X X X X ",
"X X X X X X X X X X X X X X X X X X X X X X X X   & * * * * * : X X X X X X X X X X X X X X X X X X X X X X X X X X X X X X X X ",
"X X X X X X X X X X X X X X X X X X X X X X X . % * * * * * * # X X X X X X X X X X X X X X X X X X X X X X X X X X X X X X X X ",
"X X X X X X X X X X X X X X X X X X X X X X X $ * * * * * * 2 @ X X X X X X X X X X X X X X X X X X X X X X X X X X X X X X X X ",
"X X X X X X X X X X X X X X X X X X X X X X : * * * * * * * * ; X X X X X X X X X X X X X X X X X X X X X X X X X X X X X X X X ",
"X X X X X X X X X X X X X X X X X X X X X + & * * * * * * * * % o X X X X X X X X X X X X X X X X X X X X X X X X X X X X X X X ",
"X X X X X X X X X X X X X X X X X X X X X ; * * * * * * * * * *   X X X X X X X X X X X X X X X X X X X X X X X X X X X X X X X ",
"X X X X X X X X X X X X X X X X X X X X # * * * * * * * * * * * > X X X X X X X X X X X X X X X X X X X X X X X X X X X X X X X ",
"X X X X X X X X X X X X X X X X X X X   & * * * * * * * * * * * $ X X X X X X X X X X X X X X X X X X X X X X X X X X X X X X X ",
"X X X X X X X X X X X X X X X X X X o % * * * * * * * * * * * * = O X X X X X X X X X X X X X X X X X X X X X X X X X X X X X X ",
"X X X X X X X X X X X X X X X X X X # * * * * * * * * 2 * * * * * > X X X X X X X X X X X X X X X X X X X X X X X X X X X X X X ",
"X X X X X X X X X X X X X X X X X + & * * * * * * * * 2 * * * * * @ X X X X X X X X X X X X X X X X X X X X X X X X X X X X X X ",
"X X X X X X X X X X X X X X X X o ; * * * * * * * * * * * * * * * *   X X X X X X X X X X X X X X X X X X X X X X X X X X X X X ",
"X X X X X X X X X X X X X X X X , * * * * * * * * * * * * * * * * * @ X X X X X X X X X X o #   X X X X X X X X X X X X X X X X ",
"X X X X X X X X X X X X X X X + = * * * * * * * * * * * * * * * * * * > X X X X X X X X X   * = X X X X X X X X X X X X X X X X ",
"X X X X X X X X X X X X X X X $ * * * * * * * * * * * * * 2 * * * * * % . X X X X X X X X : * * # X X X X X X X X X X X X X X X ",
"X X X X X X X X X X X X X X   & * * * * * * * 2 * * * * * * * * * * * * @ X X X X X X X X $ * * &   X X X X X X X X X X X X X X ",
"X X X X X X X X X X X X X X - * * * * * * * * * * * * * * * * * * * * 2 * # X X X X X X X ; * * * @ X X X X X X X X X X X X X X ",
"X X X X X X X X X X X X X : * * * * * * * * * * * * * * * * * * * * * * * * $ X X X X X   * * * * * > X X X X X X X X X X X X X ",
"X X X X X X X X X X X X o ; * * * * * * * * * * * * * * * * * * 2 4 2 2 * * * $ o X X X @ * * * * * ; o X X X X X X X X X X X X ",
"X X X X X X X X X X X X > * * * * * * * * * * * * * * * * * * * 8 e 6 * * * * * %   X   & * * * * * * > X X X X X X X X X X X X ",
"X X X X X X X X X X X X ; * * * * * * * * * 2 * * * * * * * * * 9 r e 5 * * * * * & @ = 2 * * * * * * ; o X X X X X X X X X X X ",
"X X X X X X X X X X X   * * * * * 2 * * * * * * * * * * * * * * 9 r r w 3 * * * * * * * * * * * * * * *   X X X X X X X X X X X ",
"X X X X X X X X X X X ; * * * * * * * * * * * * * * * * * * * 2 q r r r q 2 * * * * * * * * * * * * * * - X X X X X X X X X X X ",
"X X X X X X X X X X   & * * 2 * * * * * * * * * * * * * * * 2 2 q r r r r 7 2 * * * * * * * * * * * * * &   X X X X X X X X X X ",
"X X X X X X X X X X $ * * * * * * * * * * * * * * * * * * * * 2 w r r r r e 5 * * * * * * * * * * 2 * * * # X X X X X X X X X X ",
"X X X X X X X X X o % * * * * * * * * * * * * * * * 2 * * * * 4 e r r r r r q 3 * * * * * * * * * * * * * % o X X X X X X X X X ",
"X X X X X X X X X : * * * * * * * * * * * * * * * * * * * * * 7 r r r r r r r 9 2 * * * * * * * * * * * * * > X X X X X X X X X ",
"X X X X X X X X X @ * * * * * * * * * * * * * * * * * * * * 2 9 r r r r r r r e 5 * * * * * * * * * * * * * $ X X X X X X X X X ",
"X X X X X X X X O % * * * * * * * * * * * * * * * * * * * * 4 e r r r r r r r r w 3 * 2 * * * * * * * * * * % X X X X X X X X X ",
"X X X X X X X X   * * * * * * * * * * * * * 2 * * * * * * * 9 r r r r r r r r r r 8 * * * * * * * * * * * * * X X X X X X X X X ",
"X X X X X X X X # * * * * * * * * * * * * 4 9 5 * * * * * 5 e r r r r r r r r r r e 4 2 * * * * * * * * * * * X X X X X X X X X ",
"X X X X X X X X ; 2 * * * * * * * * * * 2 9 r 9 * * * * 3 w r r r r r r r r r r r r 9 2 * * * * * * * * * * * X X X X X X X X X ",
"X X X X X X X X = * * * * * * * * * * * 5 r r w 3 * * 3 q r r r r r r r r r r r r r e 6 * * * * * * * 2 * * * X X X X X X X X X ",
"X X X X X X X X & * * * * * 2 * * * 2 2 q r r r 6 2 4 q r r r r r r r r r r r r r r r q 2 * * * * * * * * * * X X X X X X X X X ",
"X X X X X X X X * * * * * * * * * * * 6 r r r r e 9 w r r r r r r r r r r r r r r r r r 5 * 2 * * * * 2 * * * X X X X X X X X X ",
"X X X X X X X X * * * * * * * * * * 2 q r r r r r r r r r r r r r r r r r r r r r r r r q 2 * * * * * * * * * X X X X X X X X X ",
"X X X X X X X X * * * * * * * * * * 5 r r r r r r r r r r r t r r r r r r r r r r r r r r 5 * * * * * * * * * X X X X X X X X X ",
"X X X X X X X X = * * * * * * * * 2 8 r r r r r r r r r r u A m r r e r r r r r r r r r r 8 * * * * * * * * * X X X X X X X X X ",
"X X X X X X X X % * * * * * * * * 3 w r r r r r r r r r t A @.I t r r r r r r e r r r e r w 3 * * * * * * * * X X X X X X X X X ",
"X X X X X X X X @ * * * * * * * * 6 r r r r r r r r r r m ..@.W y r r r r r r r r r r r r r 5 * * * * * * * * X X X X X X X X X ",
"X X X X X X X X , * * * * * * * * 8 r r r r r r r r r k ( @.@.{ l r r r r r r r r r r r r r 8 * * * * * * * & X X X X X X X X X ",
"X X X X X X X X + & * * * * * * 2 q r r r r r r r r t K @.@.@.@.C r r r r r r r r r r r r r q 2 * * * * * * & X X X X X X X X X ",
"X X X X X X X X X - * * * * * * 2 w r r r r r r r r m ..@.@.@.@.( f e r r r r r r r r r r r w 2 * * * * * * @ X X X X X X X X X ",
"X X X X X X X X X : * * * * * * 3 w r r r r r r r i ! @.@.@.@.@.@.H y r k V u r r r r r r r w 3 * * * * * * > X X X X X X X X X ",
"X X X X X X X X X o % * * * * * 3 w r r r r r r r Z @.@.@.@.@.@.@.@.D c R @.C r r r r r r r w 3 * * * * * % . X X X X X X X X X ",
"X X X X X X X X X X , * * * * * 2 w r r r r r r i ~ @.@.@.@.@.@.@.@.@...@.@.( s r r r r r r q 2 * * * * * , X X X X X X X X X X ",
"X X X X X X X X X X o % * * * * * 9 r r r r r r B @.@.@.@.@.@.@.@.@.@.@.@.@.@.n r r r r r r 9 2 * * * * ; o X X X X X X X X X X ",
"X X X X X X X X X X X   & * * * * 7 r r r r r t L @.@.@.@.@.@.@.@.@.@.@.@.@.@.L t r r r r r 6 * * * * &   X X X X X X X X X X X ",
"X X X X X X X X X X X X , * * * * 4 e r r r r i ` @.@.@.@.@.@.@.@.@.@.@.@.@.@.^ i r r r r e 4 * * * * # X X X X X X X X X X X X ",
"X X X X X X X X X X X X o @ * * * 2 9 r r r r k } @.@.@.@.@.@.@.@.@.@.@.@.@.@.} l r r r r 9 * * * * $ X X X X X X X X X X X X X ",
"X X X X X X X X X X X X X o - 2 * * 5 e r r r c } @.@.@.@.@.@.@.@.@.@.@.@.@.@.} c r r r e 4 * * * - X X X X X X X X X X X X X X ",
"X X X X X X X X X X X X X X o - * * * 8 r r r g ] @.@.@.@.@.@.@.@.@.@.@.@.@.@.] g r r r 7 2 * * @ . X X X X X X X X X X X X X X ",
"X X X X X X X X X X X X X X X o $ * * 3 q r r t Y @.@.@.@.@.@.@.@.@.@.@.@.@.@.Y t r r q 3 * * # o X X X X X X X X X X X X X X X ",
"X X X X X X X X X X X X X X X X X : = 2 3 q r r B @.@.@.@.@.@.@.@.@.@.@.@.@.@.m r r q 3 * = : X X X X X X X X X X X X X X X X X ",
"X X X X X X X X X X X X X X X X X X + @ 2 3 9 r u Y @.@.@.@.@.@.@.@.@.@.@.@.I y r 9 3 & $ + X X X X X X X X X X X X X X X X X X ",
"X X X X X X X X X X X X X X X X X X X X + $ 2 7 e g W @.@.@.@.@.@.@.@.@.@.E f w 7 2 @   X X X X X X X X X X X X X X X X X X X X ",
"X X X X X X X X X X X X X X X X X X X X X X + # 1 7 a F } @.@.@.@.@.@.} F p 8 1 # + X X X X X X X X X X X X X X X X X X X X X X ",
"X X X X X X X X X X X X X X X X X X X X X X X X X   < 0 b J ' @.../ J v 0 <   X X X X X X X X X X X X X X X X X X X X X X X X X "
};
