/* XPM */
static char *_c85d91e643c42abaad59d128c246278ZU6BoIoRqz8M41ye[] = {
/* columns rows colors chars-per-pixel */
"64 64 89 1 ",
"  c #010000",
". c #110303",
"X c #1E0606",
"o c #360B0B",
"O c #0F2631",
"+ c #470E0E",
"@ c #581800",
"# c #5B1010",
"$ c #5E1010",
"% c #6E0F0F",
"& c #700F0F",
"* c #770F0F",
"= c gray30",
"- c #7C7C7C",
"; c #960F0F",
": c #9C0F0F",
"> c #A51010",
", c #A61111",
"< c #BD2B26",
"1 c #C3332D",
"2 c #905800",
"3 c #964B1F",
"4 c #A2653E",
"5 c #B36739",
"6 c #DF6558",
"7 c #E36D60",
"8 c #D09818",
"9 c #F78B7F",
"0 c #F48E7E",
"q c #EA9777",
"w c #EB9678",
"e c #EB9778",
"r c #ED9479",
"t c #F1917B",
"y c #2669A6",
"u c #68B8FF",
"i c gray57",
"p c #929292",
"a c #AFA992",
"s c gray67",
"d c #FA8981",
"f c #FE8B87",
"g c #FE8F89",
"h c #FD948A",
"j c #FD978C",
"k c #FD9B8D",
"l c #FC9E8F",
"z c #FE9792",
"x c #FE9893",
"c c #FCA08F",
"v c #FCA290",
"b c #FCA591",
"n c #FBA893",
"m c #FBAB94",
"M c #FBAC95",
"N c #FBAF96",
"B c #FEA19B",
"V c #FDA69E",
"C c #FBB096",
"Z c #FBB297",
"A c #FAB398",
"S c #FAB699",
"D c #FAB899",
"F c #F9BC9B",
"G c #F9BE9C",
"H c #FDAFA5",
"J c #FDB5A9",
"K c #FCBBAE",
"L c #FCBEB1",
"P c #F8D888",
"I c #F9C19D",
"U c #FCC0B2",
"Y c #FCC3B5",
"T c #FCC5B6",
"R c #FCC7B8",
"E c #FCC9B9",
"W c #FCCEBD",
"Q c #FCD0BF",
"! c #C0C0C0",
"~ c gray78",
"^ c #FBD1C0",
"/ c #FBD4C2",
"( c #FBDCC8",
") c #F8F0C8",
"_ c #E4E4E4",
"` c #E6E6E6",
"' c #F6F6F6",
"] c #FFFEFD",
"[ c white",
/* pixels */
"4444444444444444444444444444444444444444444444444444444444444444",
"4444444444444444444444444444444444444444444444444444444444444444",
"4444444444444444444444444488888888888444444444444444444444444444",
"44444444444444444444444888PPPPPPPPP88888444444444444444444444444",
"44444444444444444iiiii..........PP8PPPPP884444444444444444444444",
"4444444444444444i''`!!io$$iiiiiiii.PPPPPPP8244444444444444444444",
"444444444444444i`iii`!iiii''''```!i.)))PPPP824444444444444444444",
"44444444444444i!i___`i'`!'iiiiiii`!i.[[))PPP82444444444444444444",
"4444444444444i!i_[[_`i!!`i_______i`! .[[))PPP8244444444444444444",
"4444444444428i!i[[[`!   `i_[[_[_[_i! o.)))PPP8244444444444444444",
"4444444444442 !ii``! oooi`i[[_[_[_iiiiiiiPPPPP824444444444444444",
"4444444444444  !!!  o   oi`i__[`[i!i'`i` iiPPP824444444444444444",
"44444444444428o   $o 228 $ ``````!  ii` oi`iP8824444444444444444",
"44444444444428 $$$  (2222 $       ooi! oi`  P8882444444444444444",
"444444444442882   I((((((2 $$$oooo  i! oi! o.8882444444444444444",
"44444444442822223q(((((((((       8Pii i! ! $.882444444444444444",
"44444444442222223I(((((((((((((((2888P i!   $$.82444444444444444",
"44444444422222223I((((((((((((((((28888i  $$$$o.8244444444444444",
"44444444    222233I((((((((((((((((288888 o$$$o.8244444444444444",
"444444444444  223q5((((((((((((((III288888 o$ooo.244444444444444",
"44444444444444 23qIqI((((((((((IIIII2288828 oooo.824444444444444",
"444444444444444 335qIIIIIIq533335III22282228 oooo 24444444444444",
"44444444444444443  5IIIIIqqIIIIIIIII228233328 ooo 24444444444444",
"44444444444444443  3IIIIIq3333335qII2223(((32 oo. 8@444444444444",
"444444444444444443OaIIIII53    335qI225(q35q32 o. 2@444444444444",
"444444444444444443y[FFFFI5 uy  aaa5II25I3q5q32 . 222@44444444444",
"444444444444444443u[SSSSDDwO  O[[a5II2qI3qqq322  @@   4444444444",
"444444444444444430uMYRTTCCryOOy[[a5II2II55Iq322 2  4444444444444",
"44444444444444443dkJYEEYJbmuuuu[[qIII22I5Iq3222  444444444444444",
"44444444444444443dlUWQWELHk9uutSFIIII22IIII322 44444444444444444",
"444444444444444430M^qF^WEKBffgjHLDII822qIq322 444444444444444444",
"444444444444444443DGIIG/^RHzffgxVMDI82233322 4444444444444444444",
"444444444444444443qIIIIIFDCckhhhlnSI82 5522 44444444444444444444",
"44444444444444444425qIe555DSmcxvbMD882 552 444444444444444444444",
"444444444444444444225qIIIq5DSSSmC88882 5  4444444444444444444444",
"444444444444444444222258IIIFFSD888P82   444444444444444444444444",
"4444444444444444442288888558888PP888  44444444444444444444444444",
"44444444444444444442288P888)PPPP882 ====444444444444444444444444",
"4444444444444444444 228PPP))PP882  iiii-=44444444444444444444444",
"44444444444444444444  28P8PP882  *Xisssi-=4444444444444444444444",
"444444444444444444444= 28222   ==:Xs~~isi=4444444444444444444444",
"444444444444444444444=X     , **$:Xs~is--=4444444444444444444444",
"4444444444444444444433X:#s    XXX:Xp-ss-pi=444444444444444444444",
"444444444444444444XXqqX*#si-issss#*X-ii---=444444444444444444444",
"4444444444444444%X::#3qXXXi-iis3XX*X-XXX===444444444444444444444",
"444444444444444&,X:#q53X*XXXXX3I#:XX%%% X66 44444444444444444444",
"444444444444444%X###555X*X::*X#*666%*171 ,6 44444444444444444444",
"444444444444444 X:#q55XX&&&&3#<<,[[%*:::*,6 44444444444444444444",
"444444444444444 X*#q53X#%[63I(#<,66, ****&& 44444444444444444444",
"4444444444444444 ##555 #%6,3qI#<:%,, ***$  444444444444444444444",
"44444444444444444 #55 +  6>>33#:<%&      44444444444444444444444",
"444444444444444444   4+,*     q#:   **+ 444444444444444444444444",
"444444444444444444444+*,,,+    #** *X##X444444444444444444444444",
"444444444444444444444+*,,,**+ +   ##X**X444444444444444444444444",
"444444444444444444444 66%***+ 4XXXXXX   444444444444444444444444",
"444444444444444444444 ,[&XXX 44+***666& 444444444444444444444444",
"444444444444444444444X%&%    444XXX,[[&  44444444444444444444444",
"44444444444444444444X#  #** 44444  %%%&:X44444444444444444444444",
"44444444444444444444  ## #* 44444X::*  *X44444444444444444444444",
"44444444444444444444X::**   44444X:* ##  44444444444444444444444",
"4444444444444444444X*****;; 44444   ***** 4444444444444444444444",
"444444444444444444%;;;;;;  4444444X#*:::* 4444444444444444444444",
"4444444444444444444      444444444X117711 4444444444444444444444",
"44444444444444444444444444444444444      44444444444444444444444"
};
