/* XPM */
static char *_89919103c4b4e45e3eb0894d52bf251nipkpfJARsaRtmro[] = {
/* columns rows colors chars-per-pixel */
"64 64 35 1 ",
"  c black",
". c #040301",
"X c #060402",
"o c #060403",
"O c #060404",
"+ c #070605",
"@ c #4B311F",
"# c #4F3420",
"$ c #503520",
"% c #523621",
"& c #513622",
"* c #513723",
"= c #553822",
"- c #563922",
"; c #563923",
": c #573923",
"> c #573B25",
", c #583A23",
"< c #583A24",
"1 c #5A3B25",
"2 c #583C26",
"3 c #593C26",
"4 c #5B483C",
"5 c #604B3E",
"6 c #624D3F",
"7 c #614D41",
"8 c #614E41",
"9 c #634F42",
"0 c #635042",
"q c #675142",
"w c #695343",
"e c #695344",
"r c #6B5445",
"t c #685446",
"y c #6A5647",
/* pixels */
" +7yttttttytttttttttttyywtttrrr6++6ywyytttttttttttttywywttywyttt",
" +5wqqqqqqqqqqqqqqqqqq6wwqqq6666++4wwqqqqqqqqqqqqqqqw6www0w4wwqq",
" .*333==2222=2:222222>>1>>2>-,4-+X=>22::2222>:22>>>>11>1>>>>>>2>",
" .*,=2==============:%:%>===-$$@X+&>=:=:====:=====>:=%>===>=:>==",
" X@,,,=====:22===>=>=:=::%==-=>%..#2==:==>=>=:=:===>==1=,==,===>",
" X*,,,:=2=2=====:=:=>=>=:>>==1>&..#:=:=2:=:=>=>==>-==1=,==>==>==",
" X*,::::==2==22:=>=:=:=>%=>>=>-@+.#2:==:=>=:=:=>==>=>-==>=>==>>=",
" X*,:*::2=::=:==:=>=>=:=>:==>=1%+.&2==2=:=>=>=:=>==>==>=,==>=%>=",
" X=::%:%:=:1=2:%=:=>=:=>=1:>:=>@ .#3*:::=:=:=>=>1======>=1>%=%>1",
" X@>1:>:2=%:==>::::=>=:==:%:::3#XX*::::::=:=:=:===>>>>=-==1=1--%",
" X@>===2=2:1==:%=:>==>=>=2:%=2:=+ *::::::==:=:===>=======>=-=2-1",
" X=>2=::==*=2=1:>===:=:=%:2===3@..*::,*:=2==::>===1==>>=1%1%===-",
" X=>=2:>--41:1->2=>=>>>=>=>%=2:*..*,,,,:2:2=::=21>>,=>>>>>>->=>%",
" X@=#=&@$$@@&@@%&=&&=@&==&@=#=*@..@*$***#&*=@&&&=@@%#&&@=@&-=&@=",
"  ....XX X....XX.X........X.X. X  ..... ... ......XX............",
"+++.+X.++X+.+++.  .++.++.++.X++X++++.+O++.++X+X+ .XX++.++.++.++.",
"7777777777777774 +4q7777777777640808888077777774+.47777777777770",
"wywyyqywyyyeqyy6+X7yeewyeyyeqyywqqtqqwttwwyyywy7++7yeyyyewwywwtw",
"3::2:2:2=332:<3*XX=23=:==33=33:32:222:22:2<:<:3*..=2=323:=3333:2",
":========*==:*:*..#=====:*<=:*:*:*======*::*:::#..&:<*==*:*::*:*",
"===:==2=:===::,* X*<=====2=3==:=:=:==2==::=:*::#.X#==<===>=>$:::",
"=2=2=====:==::<$XX*3=2=3====2==:=:=::==::::=::<*+.=3<===:=:=:::=",
"2:===:2=:::::*<*XX*=3====2====:=2==22==2=:=::::*.X#=<<:==>=:=:=:",
"=*=2=2==::*:::=#X.*====3==2=2=::==:==:==:=:=::,$X.#==<:::=>=:=:=",
"1:1==:=:=:=>:::*.X*:::::::=::::::==:==:=:::*::<*XX*3=:::=>=:=:=>",
":%==:=>=>=:=:::#+ $::*:*::==::*:2=2==22=::::::=*.+@=::=::=>=>=:=",
"%:2:=:::=>=>,:,@+.$,::::====::::==2=:==::*:::==*+ #2=:::=:=:=>=>",
":>:%:::::=:=,,,*..*<::::=2==*::::==:=2==::::=:=*XX&2==::>=>=:=:=",
"12>:>:112:,,,<,*..*<<<<<33,,<<,,3=2=2=22,,,<::<*..*,,1,:>12:2>2>",
"=@#==@@*#&$*@**@.O@:$$$$#*$*@*$*##&=#*#=**$$$*:@.+@*@**$$%@#&@@=",
"....... . . oX..  ......X X + ..XX ..... .......  .. XX X.....X.",
". ++X+X+++++o+X+++++OOOO+O+Oo++O  OOO++.+OOOOO++++O.+X++XX++X++.",
" +4w040780w48686704080q486604684++497777770777040688660888088888",
" X6yyyqwqwwwwywwwwywqwwwqtwwyyy8+X7ywewywwwtwwwwywwtwwwwywwwwwwt",
" X=3:22222222=1>22222222222>3:2= .*<23,:22222222222:1>23-22222-2",
" .@:=::====2==>%=:=====:=:=>=:=&X.*,::::====:=======>%:%========",
" X=2=======>=>=>===2=2=2====:=2#..=:*:::==:=2==2=2=:=>2::%=====2",
" X=:2=2:=2==:=:==2=======2=:=::&X.@>:==:2==2=:=====>====>:2==2==",
" .&====2=2>==>=:=::==22==22=>==#.+#2:=:==::==:=:2>==>:%=:%=2=:>=",
" .&22=====:=:=>=2==>:==:==:===2&..&2=:=:=2==2==2===:=>:11:==2==>",
" X$,::::=>=>=:=>===2:>:%:=2:=22&..*=:=:=:====2===>>=%>::===1-2==",
" X$::::::=:=>=:=2===%:1:=======#X.#2::=:===2:==:====>=::2=====2=",
" X=2=2==::%>=>=>=2:2:%===2=::=2&+ *:::::2====::=1==>=>%::>=1==:%",
" X*=====::>::=:=====>:2=:=:==2:&XX*,*:::===2::=:>==>==>:%>==1=>>",
" +=2=*3:=:>:>:>>>>>=:=>>=>:=2:==.X*,,,,:3<=:3:=>1>,,=>:>>>>===>>",
"  @**=*##&&@=@=&=@&=&&=@#&=#&#*#+ @***$*#=**@=#&%@@%#&&@=@=&=&=@",
"  .................... X.......   . .... .. ......XX............",
"++++.++.++.++.X+  ++.+XX++.++.+.++++.+.++X++X+X+ .XX++.++.+++.+.",
"7777688888888804OO497777785767778880088876777774+X48888777400777",
"ywwywwywwwwwwty6OO7eeeqyyyqyyyqyqyqqqwwtqywyyey7++7yttqtqyyqywww",
"3::<12>>2:222:2=..*<<::=33===2332:2222222:<:<:3=XX*3:2=:22=2222:",
":*::==%:*:====:@O.*:::::*=======*:===*====:*::,@XX@::=:::===*===",
":*=2:%:>=:=:==:&XX*:=2=2==3===3=::=:=:==::=::::*..*::::==2:=::=:",
",===>:%:>=>:=2>& +$:=====3===3==:::==22=:=:=*:=*+.*=:::::==2:=:=",
":1:1:1=2=:::==>= X*<=2==========2==::==:2==2::,$ X=2::::========",
":*%:%:==>=:%>::@++#3===:=3=3=3=3==:===2==:==::,$XX#=::*:=2:=2:=2",
">=>=:=::=:=>=>>&XX*,,::==>=>=::::==:==:=::*:::3*.X$>=::::==:==:=",
"=:=:=:=:>=:=:=>& X@,:::=:=:=:==:2=2==22=:::::==*XX$>:==:2=2==22=",
":=>=:=,:=>=>-=>%XX*<::::=>=:=>::==2=:==:*:::==2#..@1=>::==2=:==:",
"=>=:=>=>:=:=>=1@XX@::::::=>=:=:>:==:=2==:::,:==*.+&>:=:>:==:=2==",
">1>12>:1:>:>>11%.X*::2::>1>>2>:111:22=22<,,,,:<*..#32::12:2=2=2=",
"&@%@*=@%@#==%@=@XX#*##==&@$$&=@%@@&=#*#&***$$**#X.@**=@%@#==#***",
"+XXXXXXXXXXXXX.X  X+.XXX+XXXXXXXXXXXXX..XXXX.XXX  +XXXXXXXXXXXX.",
"               .                 .                              "
};
